<!DOCTYPE svg PUBLIC "-//W3C//DTD SVG 1.1//EN" "http://www.w3.org/Graphics/SVG/1.1/DTD/svg11.dtd">
<!-- Uploaded to: SVG Repo, www.svgrepo.com, Transformed by: SVG Repo Mixer Tools -->
<svg fill="#000000" height="83px" width="83px" version="1.1" id="Layer_1" xmlns="http://www.w3.org/2000/svg" xmlns:xlink="http://www.w3.org/1999/xlink" viewBox="0 0 512 512" xml:space="preserve">
<g id="SVGRepo_bgCarrier" stroke-width="0"/>
<g id="SVGRepo_tracerCarrier" stroke-linecap="round" stroke-linejoin="round"/>
<g id="SVGRepo_iconCarrier"> <g> <g> <path d="M473.6,345.6h1.937c-8.465-15.983-14.703-34.338-21.103-53.692C432.819,226.62,405.743,146.091,268.8,141.261V115.2h12.8 c7.074,0,12.8-5.726,12.8-12.8c0-7.074-5.726-12.8-12.8-12.8h-51.2c-7.074,0-12.8,5.726-12.8,12.8c0,7.074,5.726,12.8,12.8,12.8 h12.8v26.061c-136.943,4.83-164.019,85.359-185.634,150.647c-6.409,19.354-12.646,37.709-21.103,53.692H38.4 C17.195,345.6,0,362.795,0,384c0,21.205,17.195,38.4,38.4,38.4h435.2c21.205,0,38.4-17.195,38.4-38.4 C512,362.795,494.805,345.6,473.6,345.6z M256,166.4c160.503,0,156.843,102.588,191.087,179.2H64.913 C99.157,268.988,95.497,166.4,256,166.4z M473.6,396.8H38.4c-7.057,0-12.8-5.743-12.8-12.8s5.743-12.8,12.8-12.8h435.2 c7.057,0,12.8,5.743,12.8,12.8S480.657,396.8,473.6,396.8z"/> </g> </g> </g>
</svg>