<!DOCTYPE svg PUBLIC "-//W3C//DTD SVG 1.1//EN" "http://www.w3.org/Graphics/SVG/1.1/DTD/svg11.dtd">
<!-- Uploaded to: SVG Repo, www.svgrepo.com, Transformed by: SVG Repo Mixer Tools -->
<svg version="1.1" id="Uploaded to svgrepo.com" xmlns="http://www.w3.org/2000/svg" xmlns:xlink="http://www.w3.org/1999/xlink" width="800px" height="800px" viewBox="0 0 32 32" xml:space="preserve" fill="#000000">
<g id="SVGRepo_bgCarrier" stroke-width="0"/>
<g id="SVGRepo_tracerCarrier" stroke-linecap="round" stroke-linejoin="round"/>
<g id="SVGRepo_iconCarrier"> <style type="text/css"> .feather_een{fill:#a9acad;} </style> <path class="feather_een" d="M12,10c-1.105,0-2,0.895-2,2s0.895,2,2,2s2-0.895,2-2S13.105,10,12,10z M12,13c-0.551,0-1-0.449-1-1 s0.449-1,1-1s1,0.449,1,1S12.551,13,12,13z M26.219,23h-0.095C25.401,21.989,25,20.774,25,19.515V14 c0-4.414-3.179-8.078-7.371-8.845c0.322-0.454,0.466-1.043,0.305-1.671c-0.184-0.719-0.795-1.297-1.523-1.442 C15.126,1.786,14,2.761,14,4c0,0.431,0.139,0.828,0.372,1.154C10.18,5.922,7,9.586,7,14v5.515C7,20.774,6.599,21.989,5.876,23H5.781 c-0.459,0-0.859,0.312-0.97,0.757l-0.5,2C4.153,26.388,4.63,27,5.281,27H14l0,0.893c0,0.996,0.681,1.92,1.664,2.08 C16.917,30.176,18,29.215,18,28v-1h8.719c0.651,0,1.128-0.611,0.97-1.243l-0.5-2C27.078,23.312,26.678,23,26.219,23z M16,3 c0.552,0,1,0.448,1,1c0,0.552-0.448,1-1,1s-1-0.448-1-1C15,3.448,15.448,3,16,3z M8,19.515V14c0-4.411,3.589-8,8-8s8,3.589,8,8 v5.515c0,1.243,0.322,2.436,0.926,3.485H7.074C7.678,21.951,8,20.758,8,19.515z M17,28c0,0.551-0.449,1-1,1s-1-0.449-1-1v-1h2V28z M5.281,26l0.5-2h20.438l0.5,2H5.281z"/> </g>
</svg>