<!DOCTYPE svg PUBLIC "-//W3C//DTD SVG 1.1//EN" "http://www.w3.org/Graphics/SVG/1.1/DTD/svg11.dtd">
<!-- Uploaded to: SVG Repo, www.svgrepo.com, Transformed by: SVG Repo Mixer Tools -->
<svg height="83px" width="83px" version="1.1" id="Capa_1" xmlns="http://www.w3.org/2000/svg" xmlns:xlink="http://www.w3.org/1999/xlink" viewBox="0 0 297.656 297.656" xml:space="preserve" fill="#a9acad">
<g id="SVGRepo_bgCarrier" stroke-width="0"/>
<g id="SVGRepo_tracerCarrier" stroke-linecap="round" stroke-linejoin="round"/>
<g id="SVGRepo_iconCarrier"> <path style="fill:#a9acad;" d="M297.656,242.065v-52.69c0-5.523-4.477-10-10-10c-5.523,0-10,4.477-10,10v40.368l-77.393-16.263 c-2.295-0.482-6.05-3.452-7.049-5.575l-19.389-41.23l81.706-27.347c5.9-1.975,10.813-5.91,13.832-11.078 c3.163-5.414,3.892-11.762,1.983-17.461l-33.728-98.673l-0.078-0.218c-2.586-6.866-9.723-11.302-18.183-11.302 c-3.068,0-6.127,0.566-9.086,1.681L16.01,75.24C8.209,78.178,1.754,84.887,0.314,91.555c-0.938,4.343,0.249,8.558,3.258,11.566 c1.538,1.538,3.737,3.027,13.626,4.348c5.674,0.758,12.372,1.224,19.021,1.328l4.817,14.42l-5.583,1.937l-0.559-1.67 c-2.378-7.102-10.092-10.943-17.191-8.569l-6.156,2.06c-7.101,2.379-10.944,10.091-8.569,17.187l17.318,51.845 c1.9,5.676,7.21,9.272,12.893,9.272c1.426,0,2.875-0.226,4.3-0.703l6.151-2.06c3.435-1.149,6.219-3.573,7.84-6.825 c1.621-3.252,1.88-6.934,0.731-10.368l-0.602-1.798l5.587-1.939l3.285,9.831c2.918,8.717,11.576,14.574,21.544,14.575 c0.001,0,0.001,0,0.002,0c2.79,0,5.565-0.455,8.248-1.354l64.455-21.573l20.386,43.349c3.694,7.855,12.54,14.852,21.035,16.637 l81.506,17.128v36.882c0,5.523,4.477,10,10,10c5.523,0,10-4.477,10-10v-44.925C297.656,242.113,297.656,242.089,297.656,242.065z M16.751,92.243c1.101-1.095,2.66-2.256,4.54-2.963l194.263-72.964c1.251-0.471,2.567-0.72,3.805-0.72 c2.171,0,3.779,0.772,4.124,1.538l2.317,6.78L36.588,93.8C27.971,93.674,20.999,92.93,16.751,92.243z M40.881,161.371l-0.379,0.143 c-3.723,1.522-6.737,5.954-4.992,11.171l2.027,6.057l-3.465,1.16L17.653,130.75l3.467-1.16l2.031,6.068 c0.87,2.595,2.646,4.573,5.002,5.57c2.025,0.857,4.379,0.889,6.422,0.107l11.214-3.891l6.653,19.914L40.881,161.371z M85.514,180.414c-1.146,0.384-2.319,0.578-3.487,0.578c0,0,0,0-0.001,0c-3.511,0-6.453-1.743-7.32-4.331l-24.075-72.057 l180.022-66.492l26.485,77.483c0.712,2.126-0.149,4.1-0.726,5.088c-1.168,2-3.225,3.611-5.642,4.42l-89.583,29.983 c-1.159,0.096-2.32,0.384-3.435,0.908c-0.382,0.18-0.741,0.387-1.089,0.606L85.514,180.414z"/> </g>
</svg>