<!DOCTYPE svg PUBLIC "-//W3C//DTD SVG 1.1//EN" "http://www.w3.org/Graphics/SVG/1.1/DTD/svg11.dtd">
<!-- Uploaded to: SVG Repo, www.svgrepo.com, Transformed by: SVG Repo Mixer Tools -->
<svg fill="#a9acad" height="83px" width="83px" version="1.1" id="Capa_1" xmlns="http://www.w3.org/2000/svg" xmlns:xlink="http://www.w3.org/1999/xlink" viewBox="0 0 400.00 400.00" xml:space="preserve">
<g id="SVGRepo_bgCarrier" stroke-width="0"/>
<g id="SVGRepo_tracerCarrier" stroke-linecap="round" stroke-linejoin="round" stroke="#CCCCCC" stroke-width="2.4"/>
<g id="SVGRepo_iconCarrier"> <g id="XMLID_5_"> <path id="XMLID_965_" d="M392.886,52.24c-4.422-2.734-9.945-2.981-14.594-0.656L330,75.731V65c0-8.284-6.716-15-15-15H85 c-8.284,0-15,6.716-15,15v38.219V185c0,8.284,6.716,15,15,15h47.58c2.666,7.516,7.275,14.115,13.222,19.199L124.645,275H90v-30 c0-8.284-6.716-15-15-15H15c-8.284,0-15,6.716-15,15v90c0,8.284,6.716,15,15,15h60c8.284,0,15-6.716,15-15v-30h45 c6.233,0,11.816-3.854,14.026-9.683l24.776-65.348c0.399,0.011,0.796,0.03,1.198,0.03c19.555,0,36.227-12.541,42.42-30H315 c8.284,0,15-6.716,15-15v-10.73l48.292,24.146c2.117,1.059,4.414,1.584,6.707,1.584c2.742,0,5.478-0.752,7.886-2.24 c4.422-2.733,7.114-7.562,7.114-12.76V65C400,59.802,397.308,54.974,392.886,52.24z M30,320v-60h30v60H30z M370,160.73l-40-20 v-31.459l40-20V160.73z M100,170v-30h200v30H100z M100,80h200v30H100V80z"/> </g> </g>
</svg>