<!DOCTYPE svg PUBLIC "-//W3C//DTD SVG 1.1//EN" "http://www.w3.org/Graphics/SVG/1.1/DTD/svg11.dtd">
<!-- Uploaded to: SVG Repo, www.svgrepo.com, Transformed by: SVG Repo Mixer Tools -->
<svg version="1.1" id="_x32_" xmlns="http://www.w3.org/2000/svg" xmlns:xlink="http://www.w3.org/1999/xlink" width="83px" height="83px" viewBox="0 0 512 512" xml:space="preserve" fill="#aba6a6">
<g id="SVGRepo_bgCarrier" stroke-width="0"/>
<g id="SVGRepo_tracerCarrier" stroke-linecap="round" stroke-linejoin="round"/>
<g id="SVGRepo_iconCarrier"> <style type="text/css">  .st0{fill:#969292;}  </style> <g> <path class="st0" d="M492.797,262.25h-22.109c-10.563,0-23.313-7.594-28.375-16.875l-36.406-67.094 c-5.031-9.281-17.813-16.891-28.375-16.891H206.625c-10.563,0-24.5,6.828-30.953,15.203l-54.328,70.438 c-6.469,8.375-20.391,15.219-30.938,15.219H60.531c-33.313,0-53.813,15.875-58.609,47.906L0,343.891 c0,10.578,8.656,19.234,19.219,19.234H66.5c2.344,26.969,25.031,48.188,52.625,48.188c27.563,0,50.266-21.219,52.609-48.188 h186.172c2.313,23.813,22.406,42.438,46.844,42.438s44.531-18.625,46.844-42.438h41.203c10.547,0,19.203-8.656,19.203-19.234 v-62.422C512,270.891,503.344,262.25,492.797,262.25z M119.125,382.031c-13,0-23.547-10.531-23.547-23.531 s10.547-23.531,23.547-23.531s23.531,10.531,23.531,23.531S132.125,382.031,119.125,382.031z M291.063,261.375H152.125l7.219-9.375 l44.375-57.531c3.031-3.906,11.453-8.063,16.406-8.063h70.938V261.375z M314.125,261.375v-74.969h53.844 c4.031,0,10.578,3.906,12.516,7.469l34.594,67.5H314.125z M404.75,382.031c-13,0-23.531-10.531-23.531-23.531 s10.531-23.531,23.531-23.531s23.531,10.531,23.531,23.531S417.75,382.031,404.75,382.031z"/> <path class="st0" d="M225.859,122.844c0.016-6.219,5.063-11.281,11.281-11.281h105.25c6.234,0,11.297,5.063,11.297,11.281v30.5 h10.875v-30.5c0-12.234-9.922-22.156-22.172-22.156h-105.25c-12.234,0-22.156,9.922-22.172,22.156v30.5h10.891V122.844z"/> <path class="st0" d="M249.188,149.938h5.531c0.266,0,0.438-0.156,0.438-0.406v-22.297c0-0.172,0.078-0.234,0.25-0.234h7.484 c0.266,0,0.422-0.188,0.422-0.438v-4.625c0-0.25-0.156-0.438-0.422-0.438h-21.859c-0.281,0-0.438,0.188-0.438,0.438v4.625 c0,0.25,0.156,0.438,0.438,0.438h7.469c0.172,0,0.266,0.063,0.266,0.234v22.297C248.766,149.781,248.938,149.938,249.188,149.938z"/> <path class="st0" d="M275.422,121.5c-0.313,0-0.484,0.188-0.563,0.438l-10.172,27.594c-0.094,0.25,0,0.406,0.297,0.406h5.703 c0.281,0,0.469-0.125,0.563-0.406l1.656-5h10.344l1.688,5c0.094,0.281,0.266,0.406,0.578,0.406h5.641 c0.313,0,0.391-0.156,0.313-0.406l-10-27.594c-0.094-0.25-0.266-0.438-0.563-0.438H275.422z M281.516,139.313h-6.828l3.344-9.938 h0.125L281.516,139.313z"/> <path class="st0" d="M295.516,149.938h6.016c0.375,0,0.563-0.125,0.734-0.406l5.297-8.656h0.125l5.266,8.656 c0.172,0.281,0.359,0.406,0.734,0.406h6.063c0.281,0,0.375-0.25,0.25-0.5l-8.875-14.172L319.391,122 c0.125-0.25,0.031-0.5-0.266-0.5h-6.031c-0.359,0-0.531,0.125-0.719,0.438l-4.688,7.688h-0.125l-4.688-7.688 c-0.188-0.313-0.359-0.438-0.719-0.438h-6.031c-0.313,0-0.391,0.25-0.25,0.5l8.219,13.266l-8.828,14.172 C295.094,149.688,295.219,149.938,295.516,149.938z"/> <path class="st0" d="M326.875,121.938v27.594c0,0.25,0.188,0.406,0.438,0.406h5.531c0.25,0,0.438-0.156,0.438-0.406v-27.594 c0-0.25-0.188-0.438-0.438-0.438h-5.531C327.063,121.5,326.875,121.688,326.875,121.938z"/> </g> </g>
</svg>